<svg xmlns="http://www.w3.org/2000/svg" width="48" height="48" viewBox="0 0 48 48"><polygon points="29.18 18.47 28.75 17.98 28.27 17.96 28.27 17.52 27.95 17.42 27.85 16.96 27.51 17.02 27.25 16.5 26.05 17.26 26.59 16.2 26.59 15.49 25.63 15.49 25.61 14.81 25.3 14.81 25.32 14.43 24.54 14.49 24.58 13.83 24.04 13.85 23.84 13.41 11.36 25.85 11.36 27.63 13.57 25.87 11.36 28.44 11.36 35.72 29.18 18.47"/><polygon points="35.6 19.59 36.64 18.85 36.64 16.37 35.6 16.78 35.6 16.44 36.64 15.43 36.64 12.28 18.86 30.14 22.06 33.55 23.56 32.25 22.46 33.97 23.76 35.36 36.64 22.66 36.64 20.23 35.13 21.13 36.64 19.83 36.64 19.43 35.6 19.59"/><polygon points="35.46 28.12 36.32 28.73 36.32 25.87 35.61 25.25 30.5 30.22 36.32 35.72 36.32 34.78 34.99 33.23 36.32 34.17 36.32 29.12 35.46 28.12"/><polygon points="16.36 19.42 17.34 18.5 11.36 12.85 11.36 22.69 12.1 23.4 16.02 19.73 15.37 18.68 16.36 19.42"/></svg>