<svg xmlns="http://www.w3.org/2000/svg" width="48" height="48" viewBox="0 0 48 48"><path d="M1.68,23.33s4.85,1.66,8.4-1,9.66-9.84,16.25-9.94,9.27,2.36,9.27,2.36A17.86,17.86,0,0,0,20,19s14.63-4,26.36,5.8c0,0-4.76-1.14-8.56.91S31.32,34.57,24,34.57a10.43,10.43,0,0,1-7.36-3s4.56,1.71,8.46-.17S33.49,23.28,35.84,23a55.07,55.07,0,0,0-7.2-.26s-.07,4.29-3.9,4.59-4.86-3.54-4.86-3.54L17.17,25a6.28,6.28,0,0,0,5.49,4.76s-4.73,1.65-8.93-3.3C13.73,26.45,6.17,29,1.68,23.33Zm23,2.19c1.95-.26,2.08-2.71,2.08-2.71a39,39,0,0,0-4.92.68S22.44,25.82,24.64,25.52Z"/></svg>