<svg width="280" height="230" viewBox="0 0 280 230" fill="none" xmlns="http://www.w3.org/2000/svg">
<path d="M277.498 0.00257457C276.972 -0.0257254 276.427 0.17801 276.034 0.67683L157.413 148.954C157.203 149.215 157.072 149.53 157.034 149.863C156.996 150.195 157.053 150.532 157.198 150.834C157.343 151.135 157.57 151.39 157.854 151.568C158.137 151.746 158.466 151.84 158.8 151.839H244.515C246.835 151.839 249.013 150.793 250.456 148.982L277.537 115.141C278.612 113.783 279.206 112.109 279.206 110.383V1.78219C279.206 0.738742 278.376 0.0484446 277.498 0.00257457V0.00257457ZM1.70224 0.0138661C0.82486 0.0583661 0 0.738986 0 1.78244V110.383C0 112.109 0.593787 113.783 1.66907 115.142L90.777 226.517C92.2201 228.328 94.3979 229.374 96.7183 229.374H182.427C183.927 229.374 184.748 227.649 183.814 226.489L3.16682 0.677089C2.7742 0.188959 2.22866 -0.0128234 1.70224 0.0138966V0.0138661Z" fill="white"/>
</svg>
