<svg xmlns="http://www.w3.org/2000/svg" width="48" height="48" data-name="Layer 9" viewBox="0 0 48 48"><path d="M34.52,21a6.21,6.21,0,0,0-6,4.77l3.15,1.77a1.75,1.75,0,0,1,0-.32,2.92,2.92,0,1,1,5.84,0,2.8,2.8,0,0,1-2.75,2.91,3.78,3.78,0,0,1-2-.71l-4.34-2.38h0l-1.5-.83s.57-1.25,3.21-6l-.06,0a6.08,6.08,0,0,0,1-3.29,6.15,6.15,0,1,0-7.68,5.93l1.85-3.39c-.11,0-.21,0-.32,0a2.6,2.6,0,1,1,2.43-1.73l-.37.68L24.39,23l-.84,1.53a46.26,46.26,0,0,0-5.67-3.12v0a6.06,6.06,0,0,0-3-.79,6.15,6.15,0,1,0,6,7.55l-3.26-1.86a2.32,2.32,0,0,1,.06.45A2.77,2.77,0,1,1,14.93,24a2.84,2.84,0,0,1,1.4.45l2.82,1.61h0l1.78,1,.09.06h0c3.06,1.73,6.87,3.87,9.54,5.29a7.53,7.53,0,0,0,3.72,1l.24,0a6.22,6.22,0,1,0,0-12.44Z"/></svg>