<svg xmlns="http://www.w3.org/2000/svg" width="48" height="48" viewBox="0 0 48 48"><circle cx="24.41" cy="13.87" r="2.6"/><path d="M17.54,23s1.43-5.45,6.72-5.45,5.23,4.29,4.51,6.11-1.26,3.78-2.3,4.73a2.59,2.59,0,0,0,2.14-2.25,48.46,48.46,0,0,1,.51,5.67c0,1-.95,4.43-5.3,4.43a4.75,4.75,0,0,1-4.9-4.32c-.28-1.87,1.37-5.72,2.31-8.21C22.11,21.41,18.16,21.21,17.54,23Z"/><path d="M24.26,9.11A14.89,14.89,0,1,0,39.15,24,14.88,14.88,0,0,0,24.26,9.11Zm0,28.55A13.66,13.66,0,1,1,37.91,24,13.67,13.67,0,0,1,24.26,37.66Z"/><path d="M18.54 28.66a7.37 7.37 0 0 1 4-11.83 3.49 3.49 0 0 1-1.65-3 3.44 3.44 0 0 1 .5-1.77 12.24 12.24 0 0 0-1.08 23.5C17.75 33.87 18.22 30.15 18.54 28.66zM33.89 16.45a8 8 0 0 1-2.29 6.91s-2 1.38-1.84 2.79c.46 3.93.4 8.23-2.44 9.7a12.22 12.22 0 0 0 6.57-19.4zM26.16 16.88a7.38 7.38 0 0 1 4.62 3.67 6.53 6.53 0 0 0 .08-6.86 12.75 12.75 0 0 0-3.41-1.51 3.45 3.45 0 0 1-1.29 4.7z"/></svg>