<svg xmlns="http://www.w3.org/2000/svg" width="48" height="48" viewBox="0 0 48 48"><path d="M24.69 6.71l16.5 5.74V28.39s-.22 8.89-6 11.71L29 32.4s-3.68 0-3.68-8.49c0 0 .75 4.73 4.95 5.57l1.91 4.4 2.5-.07-1.56-2.45 3.15 1.77 2.6-2.79-4.7-8.6V19.07l-6-4.09s.43-.54 1.08-1.26S29.73 10 29 9.6l-4.49 4.05zM16.68 9l3.8-1.3 1.84 6.78a4.75 4.75 0 0 0-2.06.92zM8.55 12.07l4.34-1.89L18.09 17a5 5 0 0 0-1.79 1.63zM6.81 16.19L15 20.48a7.15 7.15 0 0 0-1.19 2.27l-7-2zM6.81 25.19h6.08a19.59 19.59 0 0 0-.65 2.33L6.81 28.61zM7.52 32.62l4.55-2.06a16.52 16.52 0 0 0 0 2.87L8.82 35.76zM12.89 37.39a16.1 16.1 0 0 0 1.3 3.9l-3-2.27z"/><polygon points="30.34 19.47 32.71 21.58 31.16 21.72 30.78 21.14 30.34 19.47"/><polygon points="35.09 29.26 37.2 30.53 35.6 30.53 35.09 29.26"/></svg>